<?xml version="1.0" encoding="UTF-8"?>
<svg version="1.1" xmlns="http://www.w3.org/2000/svg" viewBox="0 0 420 537">
<path d="M0 0 C0.99 0.5 1.98 0.99 3 1.5 C3.58 1.79 4.16 2.08 4.76 2.38 C6.72 3.4 8.64 4.47 10.56 5.57 C11.26 5.97 11.96 6.36 12.69 6.78 C27.64 15.41 41 25.9 52.81 38.5 C53.32 39.04 53.83 39.58 54.36 40.14 C56.77 42.79 58.61 44.86 59 48.5 C59.66 48.5 60.32 48.5 61 48.5 C62.62 50.47 64.1 52.42 65.56 54.5 C66 55.12 66.44 55.74 66.89 56.37 C71.8 63.44 75.93 70.93 80 78.5 C80.48 78.13 80.96 77.75 81.46 77.36 C97.9 64.5 97.9 64.5 103 64.5 C102.78 65.13 102.57 65.76 102.34 66.4 C102.07 67.22 101.79 68.04 101.5 68.88 C101.22 69.69 100.94 70.5 100.66 71.34 C100 73.5 100 73.5 100 75.5 C100.97 74.92 101.94 74.34 102.94 73.75 C116.77 65.62 133.51 56.96 150 57.5 C147.31 60.35 144.8 62.7 141.5 64.82 C137.44 67.59 135.3 71.23 133 75.5 C133.51 75.36 134.03 75.22 134.55 75.07 C151.64 70.93 171.17 73.01 187 80.5 C187.13 80.2 187.13 80.2 187.78 78.66 C193.56 65.41 200.33 53.31 210 42.5 C210.77 41.63 211.53 40.76 212.32 39.86 C218.89 32.44 225.53 25.53 233.5 19.63 C234.19 19.12 234.88 18.6 235.59 18.08 C257.39 2.11 257.39 2.11 268 -0.5 C278.92 2.5 289.87 10.86 299.25 17 C299.65 17.26 299.65 17.26 301.7 18.55 C307.44 22.4 309.92 25.96 312 32.5 C312.3 33.44 312.6 34.37 312.9 35.34 C322.83 68.31 328.6 104.64 312.47 136.52 C308.76 143.34 302.47 154.6 294.7 157.3 C294.14 157.37 293.58 157.44 293 157.5 C293 158.16 293 158.82 293 159.5 C292.34 159.5 291.68 159.5 291 159.5 C291 160.16 291 160.82 291 161.5 C290.34 161.83 289.68 162.16 289 162.5 C292.92 191.05 296.94 219.97 315 243.5 C311.46 244.69 310.11 244.24 306.56 243.25 C305.62 243 304.67 242.75 303.69 242.49 C301 241.5 299.18 240.34 297 238.5 C297.14 239.05 297.14 239.05 297.88 241.8 C300.85 253.4 303.7 265.23 298 276.5 C295.81 279.07 295.81 279.07 294 280.5 C293.97 279.81 293.95 279.12 293.92 278.41 C293.51 271.67 292.17 266.47 289 260.5 C288.78 261.21 288.56 261.91 288.34 262.63 C286.12 269.25 283.5 274.2 279 279.5 C278.57 280.07 278.14 280.65 277.7 281.23 C263.42 299.6 234.92 311.57 214 320.5 C218.83 348.22 235.28 376.76 248.04 401.47 C248.56 402.49 249.08 403.5 249.61 404.54 C250.08 405.43 250.54 406.32 251.01 407.24 C252 409.5 252 409.5 252 412.5 C247.71 411.07 244.81 408.92 241.38 406 C238.63 403.69 235.99 401.5 233 399.5 C233.18 400 233.18 400 234.1 402.53 C247.38 439.99 252.62 480.94 254 520.5 C248.12 523.14 243.24 525.03 236.69 524.82 C236.05 524.8 236.05 524.8 232.82 524.7 C231.56 524.64 230.3 524.57 229 524.5 C227.82 524.45 226.64 524.39 225.43 524.34 C220.88 524.06 216.72 523.7 212.3 522.5 C208.23 521.47 204.26 521.18 200.07 521.12 C199.71 521.12 199.71 521.12 197.9 521.07 C195.64 521.02 193.38 520.98 191.12 520.94 C188.85 520.9 186.57 520.85 184.29 520.8 C182.88 520.77 181.46 520.74 180.05 520.72 C175.22 520.62 175.22 520.62 173 519.5 C168.57 519.27 164.81 519.48 160.5 520.5 C156.03 521.49 151.74 521.59 147.19 521.5 C142.34 521.41 137.77 521.59 133 522.5 C126.46 523.67 120 523.7 113.38 523.69 C112.84 523.69 112.84 523.69 110.14 523.69 C102.41 523.64 102.41 523.64 99 522.5 C97.65 522.41 96.3 522.37 94.95 522.36 C94.14 522.35 93.32 522.35 92.49 522.34 C91.61 522.34 90.74 522.34 89.84 522.34 C88.93 522.33 88.02 522.33 87.09 522.33 C85.17 522.32 83.25 522.32 81.32 522.32 C78.41 522.32 75.49 522.3 72.57 522.28 C70.7 522.28 68.83 522.27 66.96 522.27 C66.1 522.27 65.24 522.26 64.35 522.25 C59.34 522.27 54.82 522.8 49.97 524.05 C42.76 525.71 34.5 525.05 27.4 523.08 C24.76 522.45 22.17 522.14 19.48 521.8 C12.56 520.66 7.05 517.97 0.94 514.63 C0.4 514.34 0.4 514.34 -2.33 512.88 C-20.95 502.8 -37.76 491.06 -54 477.5 C-54.73 476.92 -55.46 476.34 -56.22 475.73 C-61.6 471.32 -65.28 466.36 -69 460.5 C-69.18 460.23 -69.18 460.23 -70.08 458.85 C-81.28 441.64 -86.49 425.09 -86 404.5 C-85.01 404.5 -84.02 404.5 -83 404.5 C-82.85 404.79 -82.85 404.79 -82.08 406.26 C-75.71 418.15 -75.71 418.15 -71 420.5 C-71.21 419.91 -71.42 419.31 -71.64 418.7 C-73.77 412.25 -74.51 406.47 -74.44 399.69 C-74.43 398.73 -74.42 397.77 -74.41 396.77 C-74.06 381.37 -67.75 366.68 -57 355.5 C-56.31 355.18 -55.62 354.85 -54.91 354.51 C-52.47 353.23 -52.15 351.95 -51 349.5 C-46.03 344.74 -39.47 340.81 -33 338.5 C-32.01 338.83 -31.02 339.16 -30 339.5 C-30.21 340.09 -30.21 340.09 -31.28 343.05 C-31.83 344.59 -32.38 346.14 -32.94 347.69 C-33.22 348.46 -33.49 349.23 -33.78 350.02 C-41.02 370.35 -36.9 392.36 -28 411.5 C-18.6 429.85 -2.55 446.33 17 453.5 C17.66 453.5 18.32 453.5 19 453.5 C19.08 452.94 19.17 452.37 19.26 451.79 C21.91 434.46 25.27 416.78 32 400.5 C27.75 403.27 23.72 406.21 19.73 409.33 C18 410.5 18 410.5 16 410.5 C16.59 406.9 17.57 403.99 19.19 400.72 C19.63 399.81 20.08 398.89 20.54 397.95 C21.02 396.98 21.5 396.01 22 395 C25.83 387.14 29.51 379.24 32.94 371.19 C33.29 370.36 33.64 369.54 34.01 368.68 C37.87 359.55 41.5 350.32 45.06 341.07 C45.23 340.63 45.23 340.63 46.09 338.45 C48.48 332.23 50.36 325.96 52 319.5 C51.41 319.23 50.82 318.95 50.21 318.67 C-10.66 290.22 -10.66 290.22 -22 261.5 C-24.02 265.72 -24.41 269.71 -24.62 274.32 C-24.66 275.01 -24.7 275.7 -24.74 276.42 C-24.84 278.11 -24.92 279.81 -25 281.5 C-28.38 280.13 -29.66 278.93 -31.19 275.63 C-31.35 275.29 -31.35 275.29 -32.17 273.57 C-36.68 262.34 -33.97 248.8 -31 237.5 C-31.89 238.14 -32.77 238.78 -33.69 239.44 C-38.87 242.67 -42.97 242.62 -49 242.5 C-48.61 242 -48.23 241.49 -47.83 240.96 C-47.31 240.28 -46.79 239.59 -46.25 238.88 C-45.74 238.21 -45.23 237.53 -44.7 236.84 C-30.6 217.5 -27.38 191.8 -23.85 168.66 C-23.09 163.68 -23.09 163.68 -22 161.5 C-22.37 161.38 -22.37 161.38 -24.23 160.75 C-27.26 159.38 -29 157.88 -31.31 155.5 C-32.01 154.8 -32.71 154.1 -33.43 153.38 C-35 151.5 -35 151.5 -35 149.5 C-35.99 149.17 -36.98 148.84 -38 148.5 C-39.58 146.43 -40.99 144.4 -42.38 142.19 C-42.77 141.56 -43.17 140.93 -43.58 140.28 C-58.92 115.35 -58.55 83.31 -52 55.5 C-50.92 51.28 -49.76 47.07 -48.56 42.88 C-48.27 41.87 -47.99 40.86 -47.69 39.82 C-46.85 37.03 -45.96 34.26 -45 31.5 C-44.74 30.76 -44.49 30.02 -44.23 29.26 C-41.62 22.98 -36.94 20.13 -31.31 16.63 C-30.38 16.03 -29.45 15.44 -28.5 14.83 C-26.6 13.62 -24.69 12.42 -22.78 11.23 C-20.18 9.62 -17.61 7.97 -15.05 6.31 C-13.55 5.37 -12.06 4.44 -10.56 3.5 C-9.88 3.06 -9.21 2.63 -8.51 2.17 C-5.41 0.31 -3.62 -0.6 0 0 Z M25 161.5 C17.99 170.71 15.79 180.27 15.21 191.62 C15.03 194.06 14.69 196.17 14 198.5 C14.99 198.83 15.98 199.16 17 199.5 C18.06 201.32 18.06 201.32 19 203.5 C19.37 204.25 19.74 204.99 20.12 205.75 C20.41 206.33 20.7 206.91 21 207.5 C21.66 207.5 22.32 207.5 23 207.5 C22.34 209.81 21.68 212.12 21 214.5 C21.66 214.83 22.32 215.16 23 215.5 C25.63 214.57 25.63 214.57 28 213.5 C28.66 215.48 29.32 217.46 30 219.5 C30.99 219.5 31.98 219.5 33 219.5 C33 220.16 33 220.82 33 221.5 C37.93 223.54 41.58 224.91 47 224.5 C47.33 225.49 47.66 226.48 48 227.5 C48.99 227.5 49.98 227.5 51 227.5 C51 228.16 51 228.82 51 229.5 C51.99 229.5 52.98 229.5 54 229.5 C54 230.16 54 230.82 54 231.5 C58.62 231.5 63.24 231.5 68 231.5 C68 230.84 68 230.18 68 229.5 C68.28 229.44 68.28 229.44 69.71 229.14 C70.45 228.97 71.18 228.8 71.94 228.63 C72.67 228.47 73.4 228.3 74.15 228.14 C76 227.5 76 227.5 77 225.5 C79.06 224.38 79.06 224.38 81 223.5 C81 222.51 81 221.52 81 220.5 C81.68 220.32 82.36 220.13 83.06 219.94 C89.27 216.9 93.4 211.86 96 205.5 C97.11 196.5 96.31 188.53 92 180.5 C91.49 179.52 90.98 178.53 90.46 177.51 C84.41 166.42 77.46 159.81 66 154.5 C65.28 154.16 64.56 153.82 63.82 153.47 C49.82 147.8 35.95 151.82 25 161.5 Z M183.69 166.36 C174.96 177.41 170.12 187.65 170.47 201.78 C171.51 209.1 174.98 214.02 180.63 218.66 C192.25 226.54 205.52 226.95 219.11 225.07 C230.38 222.17 239.57 213.6 245.61 203.93 C250.35 194.4 250.61 182.92 248.37 172.6 C247.47 170.29 246.45 168.51 245 166.5 C244.44 165.73 243.88 164.95 243.3 164.15 C238.03 157.59 231.38 153.07 223 151.5 C207.52 150.41 194.48 154.82 183.69 166.36 Z M108.88 230.69 C106.22 234.68 106.27 237.85 107 242.5 C108.81 248.28 112.83 251.62 118 254.5 C127.21 257.78 139.7 258.63 148.75 254.44 C153.59 251.52 157.46 247.57 160 242.5 C160.35 238.21 160.56 235.62 158.62 231.75 C145.72 220.69 122.23 221.35 108.88 230.69 Z " fill="#ffffff" transform="translate(92,6.49609375)"/>
<path d="M0 0 C6.7 5.66 6.7 5.66 7.35 10.09 C4.16 11.34 4.16 11.34 0.35 12.09 C-2.15 10.41 -2.15 10.41 -4.65 8.09 C-10.08 5.56 -14.35 3.96 -20.34 4.03 C-21.33 4.04 -22.32 4.05 -23.35 4.06 C-24.11 4.07 -24.87 4.08 -25.65 4.09 C-25.03 4.55 -24.42 5.01 -23.79 5.49 C-21.74 7.02 -19.7 8.56 -17.65 10.09 C-17.9 11.97 -17.9 11.97 -18.65 14.09 C-19.31 14.42 -19.31 14.42 -22.65 16.09 C-22.65 23.35 -22.65 30.61 -22.65 38.09 C-23.31 38.09 -23.97 38.09 -24.65 38.09 C-24.77 38.38 -24.77 38.38 -25.41 39.83 C-26.81 42.39 -28.42 44.2 -30.46 46.28 C-30.79 46.63 -30.79 46.63 -32.48 48.39 C-34.91 50.3 -36.61 50.74 -39.65 51.09 C-39.65 50.1 -39.65 49.11 -39.65 48.09 C-40.64 49.08 -41.63 50.07 -42.65 51.09 C-44.3 50.43 -45.95 49.77 -47.65 49.09 C-47.32 47.11 -46.99 45.13 -46.65 43.09 C-45.49 42.93 -45.49 42.93 -39.65 42.09 C-39.36 41.31 -39.07 40.53 -38.77 39.72 C-37.65 37.09 -37.65 37.09 -35.65 35.09 C-34.33 35.09 -33.01 35.09 -31.65 35.09 C-32.02 31.97 -32.49 29.03 -33.65 26.09 C-36.77 24.53 -36.77 24.53 -39.65 24.09 C-38.99 23.1 -38.33 22.11 -37.65 21.09 C-38.19 16.55 -38.19 16.55 -39.65 15.09 C-43.15 14.97 -43.15 14.97 -46.65 15.09 C-48.15 16.59 -47.98 18.08 -48.21 20.16 C-48.36 21.46 -48.5 22.75 -48.65 24.09 C-48.98 23.43 -49.31 22.77 -49.65 22.09 C-50.31 22.09 -50.97 22.09 -51.65 22.09 C-51.65 23.08 -51.65 24.07 -51.65 25.09 C-53.96 25.42 -56.27 25.75 -58.65 26.09 C-60.21 33.08 -61.13 39.96 -61.65 47.09 C-62.31 47.26 -62.31 47.26 -65.65 48.09 C-66.09 38.9 -66.09 31.36 -61.65 23.09 C-61.39 22.6 -61.39 22.6 -60.11 20.1 C-53.56 8.1 -44.15 -1.28 -30.71 -5.34 C-19.87 -7.35 -9.11 -6.55 0 0 Z " fill="#000000" transform="translate(328.6484375,163.90625)"/>
<path d="M0 0 C10.02 -0.52 18.71 -0.53 26.62 6.25 C28.45 9.9 28.76 13.05 28 17 C24.73 23.41 19.63 27.65 13 30.39 C9.4 31.49 5.86 31.44 2.12 31.38 C1.33 31.36 0.53 31.35 -0.29 31.34 C-8.89 31.12 -15.25 29.57 -21.62 23.53 C-25.1 19.67 -25.6 15.27 -25.53 10.22 C-24.56 6.15 -21.4 4.15 -18 2 C-15.59 0.8 -14.05 0.9 -11.38 0.94 C-10.97 0.94 -10.97 0.94 -8.9 0.96 C-8.59 0.97 -8.59 0.97 -7 1 C-7 2.98 -7 4.96 -7 7 C-2.05 7 2.9 7 8 7 C8.33 6.01 8.66 5.02 9 4 C8.34 4 7.68 4 7 4 C5 3.68 3 3.35 1 3 C0.67 2.01 0.34 1.02 0 0 Z " fill="#000000" transform="translate(224,232)"/>
<path d="M0 0 C1.94 0.38 1.94 0.38 4 1 C4.33 1.66 4.66 2.32 5 3 C4.34 3 3.68 3 3 3 C2.88 3.95 2.75 4.9 2.62 5.88 C2 9 2 9 0 11 C-0.4 13.32 -0.74 15.66 -1 18 C-1.66 18 -2.32 18 -3 18 C-3.33 18.66 -3.66 19.32 -4 20 C-4.12 12.25 -4.12 12.25 -3 10 C-3.66 10 -4.32 10 -5 10 C-5.61 18.04 -5.4 24.6 0 31 C0.99 31.33 1.98 31.66 3 32 C4.04 33.64 4.04 33.64 5.06 35.69 C8.24 40.94 12.36 43.68 18 46 C22.42 46.67 26.67 46.58 31.12 46.38 C31.7 46.36 31.7 46.36 34.6 46.29 C37.4 46.22 40.2 46.12 43 46 C43.6 47.87 43.6 47.87 44 50 C39.78 55.45 32.75 58.36 26.02 59.27 C14.38 60.14 4.38 58.19 -5 51 C-14.68 42.4 -14.68 42.4 -15.25 36.38 C-15 34 -15 34 -13 32 C-13.33 31.34 -13.66 30.68 -14 30 C-13.34 30 -12.68 30 -12 30 C-12.33 29.34 -12.66 28.68 -13 28 C-13.1 25.88 -13.13 23.75 -13.12 21.62 C-13.13 20.48 -13.13 19.34 -13.13 18.16 C-13.02 15.54 -12.67 13.51 -12 11 C-12 9.68 -12 8.36 -12 7 C-9.75 5.88 -9.75 5.88 -7 5 C-4.81 5.94 -4.81 5.94 -3 7 C-2.34 6.67 -1.68 6.34 -1 6 C-0.38 2.94 -0.38 2.94 0 0 Z " fill="#85cc23" transform="translate(133,170)"/>
<path d="M0 0 C0.78 0.5 1.57 0.99 2.38 1.5 C5 3 5 3 7 3 C9.62 10.86 8.58 19.8 5.46 27.36 C0.31 36.69 -7.59 43.2 -17.5 46.81 C-28.86 49.9 -39.2 48.78 -49.38 43.12 C-52 41 -52 41 -52.88 38.25 C-52.92 37.51 -52.96 36.76 -53 36 C-48.38 34.13 -45.83 34.11 -41 35 C-33.44 35.59 -27.31 35.52 -21 31 C-18.18 28.55 -16.28 26.5 -14.44 23.25 C-13.96 22.51 -13.49 21.76 -13 21 C-12.34 20.88 -11.68 20.75 -11 20.62 C-9 20 -9 20 -7.31 17.06 C-6.09 13.93 -5.81 11.1 -5.62 7.75 C-5.45 5.18 -5.45 5.18 -5 3 C-2.44 0.88 -2.44 0.88 0 0 Z " fill="#85cc23" transform="translate(328,181)"/>
<path d="M0 0 C4.81 -0.57 7.2 1.17 11 4 C10.67 5.65 10.34 7.3 10 9 C10.66 9 11.32 9 12 9 C14.67 9.3 17.33 9.66 20 10 C20 10.33 20 10.66 20 11 C18.02 11.66 16.04 12.32 14 13 C14.06 14.28 14.12 15.56 14.19 16.88 C14.29 19.05 14.29 19.05 14 21 C13.01 21.66 12.02 22.32 11 23 C10.49 24.95 10.49 24.95 10.31 27.12 C10.21 28.4 10.11 29.68 10 31 C10.66 31 11.32 31 12 31 C12.33 31.66 12.66 32.32 13 33 C14.64 33.72 16.31 34.39 18 35 C17.34 35.16 17.34 35.16 14 36 C14 36.66 14 37.32 14 38 C10.33 38.85 6.96 39.11 3.19 39.06 C2.21 39.05 1.24 39.04 0.23 39.04 C-0.14 39.03 -0.14 39.03 -2 39 C-3.28 36.44 -2.67 34.82 -2.23 32.08 C-1.8 28.23 -2.17 24.41 -2.44 20.56 C-2.46 20.15 -2.46 20.15 -2.6 18.06 C-2.72 16.04 -2.86 14.02 -3 12 C-4.65 11.67 -6.3 11.34 -8 11 C-6.56 5.97 -3.98 4.11 0 1 C0 0.67 0 0.34 0 0 Z " fill="#000000" transform="translate(147,167)"/>
<path d="M0 0 C4.46 3.99 6.57 7.03 7.22 13.03 C7.52 20.19 6.18 27.62 1.69 33.38 C-4.2 39.12 -9.86 42.29 -18.12 42.25 C-18.64 42.25 -18.64 42.25 -21.26 42.27 C-24 42 -24 42 -27 40 C-26.34 40 -25.68 40 -25 40 C-24.67 39.01 -24.34 38.02 -24 37 C-23.34 37 -22.68 37 -22 37 C-22 37.99 -22 38.98 -22 40 C-15.14 37.25 -10.07 32.1 -6 26 C-5.87 24.03 -5.87 24.03 -6.02 21.8 C-6.05 20.98 -6.08 20.16 -6.12 19.32 C-6.2 17.62 -6.31 15.92 -6.43 14.22 C-6.6 9.35 -6.22 6.67 -2.98 2.89 C-2.01 1.91 -1.02 0.93 0 0 Z " fill="#000000" transform="translate(311,175)"/>
<path d="M0 0 C0.33 0.5 0.33 0.5 2 3 C2.66 2.67 3.32 2.34 4 2 C5.77 10.19 4.14 15.76 0 23 C-6.28 31.62 -14.39 38.77 -24.87 41.53 C-38.62 43.59 -52.31 43.02 -63.95 34.83 C-67.41 31.74 -69.73 28.01 -72 24 C-71.84 23.72 -71.84 23.72 -71.04 22.33 C-69.87 19.72 -69.6 17.59 -69.38 14.75 C-69.3 13.86 -69.23 12.97 -69.15 12.05 C-69.1 11.37 -69.05 10.7 -69 10 C-68.67 10 -68.34 10 -68 10 C-68.03 10.82 -68.06 11.64 -68.1 12.49 C-68.03 19.2 -67.39 23.44 -62.88 28.56 C-54.92 36.35 -48.11 38.25 -37.21 38.25 C-26.94 38.09 -18.51 35 -10.87 28.06 C-3.07 20.01 -0.48 11.02 0 0 Z " fill="#85cc23" transform="translate(336,190)"/>
<path d="M0 0 C1.13 3.39 0.99 3.77 -0.5 6.81 C-3.29 12.09 -7.3 16.1 -13 18 C-14.39 18.07 -15.79 18.09 -17.19 18.06 C-17.82 18.05 -17.82 18.05 -21 18 C-21.33 17.34 -21.66 16.68 -22 16 C-23.64 15.28 -25.31 14.61 -27 14 C-27 13.01 -27 12.02 -27 11 C-27.66 11 -28.32 11 -29 11 C-29 10.34 -29 9.68 -29 9 C-29.99 8.67 -30.98 8.34 -32 8 C-27.38 7.67 -22.76 7.34 -18 7 C-18 6.34 -18 5.68 -18 5 C-17.52 4.95 -17.52 4.95 -15.08 4.67 C-14.45 4.59 -14.45 4.59 -11.25 4.19 C-10 4.04 -8.74 3.89 -7.45 3.73 C-4.09 3.02 -2.49 2.29 0 0 Z " fill="#000000" transform="translate(179,198)"/>
<path d="M0 0 C8.62 -0.44 15.51 -0.54 23 4 C23.79 4.47 24.59 4.94 25.41 5.43 C29.72 8.14 33.1 10.71 36 15 C33.06 14.19 33.06 14.19 30 13 C29.84 12.5 29.84 12.5 29 10 C28.01 10 27.02 10 26 10 C26 9.01 26 8.02 26 7 C25.01 7.33 24.02 7.66 23 8 C22.84 7.67 22.84 7.67 22 6 C20.68 6.33 19.36 6.66 18 7 C18.33 8.32 18.66 9.64 19 11 C19.58 11.12 20.16 11.25 20.75 11.38 C23.07 12.02 24.95 12.73 27 14 C27.16 14.5 27.16 14.5 28 17 C24.95 17.98 23.05 17.98 20 17 C19.67 17.66 19.34 18.32 19 19 C18.34 18.34 17.68 17.68 17 17 C17.38 14.38 17.38 14.38 18 12 C17.34 12 16.68 12 16 12 C16 11.34 16 10.68 16 10 C12.34 8.78 8.94 8.82 5.12 8.81 C4.42 8.8 3.71 8.79 2.98 8.78 C-1.18 8.76 -4.23 9.29 -8 11 C-8.99 11 -9.98 11 -11 11 C-11 10.34 -11 9.68 -11 9 C-9.02 8.67 -7.04 8.34 -5 8 C-5 7.34 -5 6.68 -5 6 C-3.23 3.67 -2.18 3.05 0.69 2.31 C1.45 2.21 2.21 2.11 3 2 C2.01 1.34 1.02 0.68 0 0 Z " fill="#000000" transform="translate(139,159)"/>
<path d="M0 0 C4.19 3.36 5.41 6.81 6 12 C5.62 15.69 5.62 15.69 5 19 C5.04 19.44 5.04 19.44 5.25 21.69 C5 24 5 24 3.12 26.25 C-1.17 28.65 -5.11 29.1 -10 29 C-13.12 28.06 -13.12 28.06 -15 27 C-15 26.67 -15 26.34 -15 26 C-12.03 26 -9.06 26 -6 26 C-5.67 22.37 -5.34 18.74 -5 15 C-5.99 14.67 -6.98 14.34 -8 14 C-7.01 13.34 -6.02 12.68 -5 12 C-4.81 8.38 -4.81 8.38 -5 5 C-4.34 5 -3.68 5 -3 5 C-2.67 5.66 -2.34 6.32 -2 7 C-1.86 6.4 -1.71 5.8 -1.56 5.19 C-1.11 3.44 -0.57 1.71 0 0 Z " fill="#000000" transform="translate(175,174)"/>
<path d="M0 0 C4.21 2.94 7.93 6.21 10 11 C9.67 11.99 9.34 12.98 9 14 C8.01 14 7.02 14 6 14 C5.34 13.01 4.68 12.02 4 11 C3.34 11.66 2.68 12.32 2 13 C1.34 13 0.68 13 0 13 C-0.03 13.63 -0.05 14.26 -0.08 14.91 C-0.5 21.23 -1.85 25.51 -5 31 C-5.99 31 -6.98 31 -8 31 C-7.83 30.03 -7.67 29.06 -7.5 28.06 C-6.7 22.38 -6.73 16.86 -7.56 11.19 C-7.96 8.3 -8.03 6.68 -7 4 C-6.67 3.67 -6.34 3.34 -6 3 C-6.99 2.34 -7.98 1.68 -9 1 C-5.62 -1.13 -3.76 -1.4 0 0 Z " fill="#85cc23" transform="translate(324,171)"/>
<path d="M0 0 C0.33 0 0.66 0 1 0 C1 3.96 1 7.92 1 12 C1.66 12 2.32 12 3 12 C3 12.66 3 13.32 3 14 C3.66 14 4.32 14 5 14 C5 11.36 5 8.72 5 6 C5.33 6 5.66 6 6 6 C6.09 6.89 6.17 7.79 6.26 8.71 C7.58 20.04 10.3 28.35 18.76 36.25 C27.76 43.29 37.87 45.24 49 46 C49 46.33 49 46.66 49 47 C33.98 47.36 23.02 46.34 11.31 36 C3.87 28.13 -0.16 17.39 -0.06 6.75 C-0.05 5.49 -0.04 4.22 -0.04 2.92 C-0.02 1.96 -0.01 0.99 0 0 Z " fill="#85cc23" transform="translate(109,184)"/>
<path d="M0 0 C1.98 0 3.96 0 6 0 C7.6 3.51 8.22 6.14 8 10 C7.24 10.21 6.47 10.41 5.69 10.62 C2.18 12.42 1.47 14.43 0 18 C-2.31 18 -4.62 18 -7 18 C-7 19.65 -7 21.3 -7 23 C-7.66 22.67 -8.32 22.34 -9 22 C-8.67 21.34 -8.34 20.68 -8 20 C-8.95 19.84 -9.9 19.67 -10.88 19.5 C-14 18 -14 18 -14.84 16.09 C-15.33 14.08 -15.67 12.04 -16 10 C-14.68 10 -13.36 10 -12 10 C-11.37 9.84 -10.73 9.67 -10.08 9.5 C-7.58 8.9 -5.32 8.9 -2.75 8.94 C-1.86 8.95 -0.97 8.96 -0.05 8.96 C0.63 8.98 1.3 8.99 2 9 C2 6.36 2 3.72 2 1 C1.34 0.67 0.68 0.34 0 0 Z " fill="#000000" transform="translate(289,189)"/>
<path d="M0 0 C0.33 0 0.66 0 1 0 C1.16 1.98 1.16 1.98 2 12 C2.66 12 3.32 12 4 12 C2.73 18.35 -1.06 22.12 -6 26 C-9.55 28.05 -13.15 29.6 -17 31 C-17.67 31.25 -18.34 31.49 -19.02 31.75 C-27.09 34.21 -36.16 33.97 -44 31 C-42.67 30.67 -41.33 30.33 -40 30 C-39.43 29.83 -38.86 29.66 -38.27 29.48 C-35.33 28.86 -32.49 28.84 -29.5 28.75 C-22.18 28.29 -16.55 26.12 -10 23 C-9.01 22.67 -8.02 22.34 -7 22 C-6.06 20.31 -6.06 20.31 -5 18 C-4.32 17.18 -3.64 16.35 -2.94 15.5 C0.2 10.99 -0.17 5.31 0 0 Z " fill="#85cc23" transform="translate(183,200)"/>
<path d="M0 0 C-0.74 0.56 -1.48 1.11 -2.25 1.69 C-10.75 8.83 -13.51 17.31 -15 28 C-15.66 28 -16.32 28 -17 28 C-17 27.34 -17 26.68 -17 26 C-17.66 26 -18.32 26 -19 26 C-19.45 17.35 -19.56 9.64 -15 2 C-14.34 1.67 -13.68 1.34 -13 1 C-13 1.66 -13 2.32 -13 3 C-12.34 3 -11.68 3 -11 3 C-10.55 2.53 -10.09 2.05 -9.62 1.56 C-6.58 -1.36 -3.87 -1.24 0 0 Z " fill="#000000" transform="translate(129,170)"/>
<path d="M0 0 C0.66 0 1.32 0 2 0 C2 5.28 2 10.56 2 16 C2.99 16 3.98 16 5 16 C5 16.99 5 17.98 5 19 C4.34 19 3.68 19 3 19 C3.62 21.44 3.62 21.44 5 24 C8.12 24.81 8.12 24.81 11 25 C11 25.66 11 26.32 11 27 C11.66 27 12.32 27 13 27 C13.33 27.99 13.66 28.98 14 30 C15.65 30.33 17.3 30.66 19 31 C19 31.66 19 32.32 19 33 C20.98 33.33 22.96 33.66 25 34 C25 34.33 25 34.66 25 35 C15.54 35.8 9.62 34.78 2 29 C2.33 27.68 2.66 26.36 3 25 C2.34 25 1.68 25 1 25 C0.64 23.56 0.28 22.13 -0.06 20.69 C-0.16 20.29 -0.16 20.29 -0.66 18.26 C-1 16 -1 16 0 13 C0.07 10.77 0.08 8.54 0.06 6.31 C0.05 5.13 0.04 3.95 0.04 2.74 C0.02 1.83 0.01 0.93 0 0 Z " fill="#000000" transform="translate(139,182)"/>
<path d="M0 0 C-3.9 3.21 -7.12 3.94 -12 5 C-12 5.66 -12 6.32 -12 7 C-12.99 7 -13.98 7 -15 7 C-15 7.66 -15 8.32 -15 9 C-17.12 9.67 -19.25 10.34 -21.38 11 C-22.56 11.37 -23.74 11.74 -24.96 12.12 C-28 13 -28 13 -30 13 C-30.33 13.99 -30.66 14.98 -31 16 C-31.99 15.67 -32.98 15.34 -34 15 C-31.72 8.63 -27.61 6.22 -22 3 C-20.97 2.38 -19.94 1.76 -18.88 1.12 C-13.18 -1.2 -6.05 -0.21 0 0 Z " fill="#000000" transform="translate(149,158)"/>
<path d="M0 0 C0.66 0.66 1.32 1.32 2 2 C3.99 2.4 5.99 2.74 8 3 C8 3.33 8 3.66 8 4 C6.51 4.16 6.51 4.16 -1 5 C-1 7.97 -1 10.94 -1 14 C-1.66 14 -2.32 14 -3 14 C-3.33 14.66 -3.66 15.32 -4 16 C-4.99 15.34 -5.98 14.68 -7 14 C-7 14.66 -7 15.32 -7 16 C-6.34 16.33 -5.68 16.66 -5 17 C-5 18.65 -5 20.3 -5 22 C-4.69 22.07 -4.69 22.07 -3.12 22.44 C-1 23 -1 23 1 24 C1 24.99 1 25.98 1 27 C2.32 27.66 3.64 28.32 5 29 C4.01 29.33 3.02 29.66 2 30 C-4.32 26.29 -7.89 20.88 -10 14 C-11.46 7.91 -11.46 7.91 -10 5 C-7.68 4.59 -5.34 4.26 -3 4 C-3 3.01 -3 2.02 -3 1 C-2.01 0.67 -1.02 0.34 0 0 Z " fill="#000000" transform="translate(280,185)"/>
<path d="M0 0 C0.66 0.99 1.32 1.98 2 3 C1.67 3.99 1.34 4.98 1 6 C0.01 6 -0.98 6 -2 6 C-2 6.66 -2 7.32 -2 8 C-1.01 8.33 -0.02 8.66 1 9 C1.03 11.27 1.05 13.54 1.06 15.81 C1.07 17.08 1.09 18.34 1.1 19.64 C1 23 1 23 0 26 C0.28 28.34 0.61 30.68 1 33 C1.66 33 2.32 33 3 33 C2.67 33.99 2.34 34.98 2 36 C-3.16 31.76 -5.5 26.38 -6.46 19.88 C-6.87 11.68 -4.93 6.5 0 0 Z " fill="#000000" transform="translate(139,174)"/>
<path d="M0 0 C0.33 0 0.66 0 1 0 C1.06 0.85 1.13 1.7 1.19 2.57 C2.38 13.98 5.94 25.5 14.76 33.47 C19.83 36.93 25.43 39.46 31 42 C31 42.33 31 42.66 31 43 C25.58 43.41 21.93 42.04 17 40 C17 39.34 17 38.68 17 38 C15.68 37.67 14.36 37.34 13 37 C12.84 36.18 12.84 36.18 12 32 C10.02 32.66 8.04 33.32 6 34 C5 32 5 32 5.94 28.88 C6.29 27.93 6.64 26.98 7 26 C6.34 26 5.68 26 5 26 C3.98 23.95 2.97 21.92 2.06 19.81 C1 18 1 18 -2 17 C-1.46 11.31 -0.86 5.65 0 0 Z " fill="#ffffff" transform="translate(108,188)"/>
<path d="M0 0 C0.66 0.66 1.32 1.32 2 2 C0.93 2.58 -0.15 3.16 -1.25 3.75 C-8.15 7.77 -10.69 12.9 -14 20 C-14.33 20 -14.66 20 -15 20 C-15.31 15.42 -14.93 13.49 -12 10 C-11.29 8.35 -10.61 6.69 -10 5 C-11.32 4.34 -12.64 3.68 -14 3 C-14 4.98 -14 6.96 -14 9 C-15.69 10.12 -15.69 10.12 -18 11 C-20.56 10.12 -20.56 10.12 -23 9 C-23.99 9 -24.98 9 -26 9 C-17.81 2.42 -10.8 -1.38 0 0 Z " fill="#85cc23" transform="translate(147,167)"/>
<path d="M0 0 C0.33 0 0.66 0 1 0 C1.09 0.33 1.09 0.33 1.52 1.98 C3.69 9.83 6.3 15.07 13 20 C13.66 20.66 14.32 21.32 15 22 C13.68 22.16 13.68 22.16 7 23 C6.67 23.99 6.34 24.98 6 26 C3.09 23.78 1.05 22.07 -1 19 C-1.17 16.11 -1.23 13.33 -1.19 10.44 C-1.19 9.66 -1.19 8.88 -1.19 8.07 C-1.14 2.28 -1.14 2.28 0 0 Z " fill="#85cc23" transform="translate(269,194)"/>
<path d="M0 0 C3.63 0.66 7.26 1.32 11 2 C11.12 10.75 11.12 10.75 10 13 C6.7 13 3.4 13 0 13 C0 12.34 0 11.68 0 11 C-0.66 11 -1.32 11 -2 11 C-2.25 3.38 -2.25 3.38 0 0 Z " fill="#000000" transform="translate(159,187)"/>
<path d="M0 0 C2.92 2.92 2.34 5.19 2.38 9.25 C2.4 10.55 2.43 11.86 2.46 13.2 C1.94 17.53 0.73 19.65 -2 23 C-2.66 23.33 -3.32 23.66 -4 24 C-4.33 23.34 -4.66 22.68 -5 22 C-7.29 21.59 -7.29 21.59 -10.06 21.38 C-10.98 21.3 -11.9 21.23 -12.85 21.15 C-13.56 21.1 -14.27 21.05 -15 21 C-14.01 20.34 -13.02 19.68 -12 19 C-5.06 13.98 -2.44 8.13 0 0 Z " fill="#85cc23" transform="translate(181,195)"/>
<path d="M0 0 C2.28 2.09 3.71 4.04 5.06 6.81 C5.38 7.46 5.7 8.1 6.04 8.77 C8.41 14.26 9.28 18.91 9.12 24.88 C9.12 25.56 9.11 26.25 9.1 26.96 C9.07 28.64 9.04 30.32 9 32 C8.01 32 7.02 32 6 32 C4.6 29.21 4.39 26.46 3.94 23.38 C3.85 22.78 3.85 22.78 3.4 19.77 C3.27 18.86 3.14 17.94 3 17 C2.34 17.33 1.68 17.66 1 18 C0.08 12.99 0.24 9.01 1 4 C0.56 1.56 0.56 1.56 0 0 Z " fill="#000000" transform="translate(179,180)"/>
<path d="M0 0 C-0.33 0.99 -0.66 1.98 -1 3 C-1.99 3.33 -2.98 3.66 -4 4 C-4.33 4.66 -4.66 5.32 -5 6 C-6.85 6.63 -6.85 6.63 -9.06 7.12 C-9.8 7.29 -10.53 7.46 -11.29 7.63 C-11.85 7.75 -12.42 7.88 -13 8 C-13 8.66 -13 9.32 -13 10 C-17.62 10 -22.24 10 -27 10 C-27 9.34 -27 8.68 -27 8 C-27.99 8 -28.98 8 -30 8 C-30 7.34 -30 6.68 -30 6 C-31.32 5.67 -32.64 5.34 -34 5 C-34 4.34 -34 3.68 -34 3 C-33.57 3.08 -33.57 3.08 -31.38 3.48 C-21.82 4.95 -13.7 4.05 -4.58 0.88 C-2 0 -2 0 0 0 Z " fill="#ffffff" transform="translate(173,228)"/>
<path d="M0 0 C0.47 0 0.47 0 2.84 0.02 C3.33 0.03 3.33 0.03 5.8 0.07 C6.79 0.08 7.78 0.09 8.79 0.1 C11.23 0.12 13.67 0.15 16.11 0.2 C16.11 0.53 16.11 0.86 16.11 1.2 C12.48 1.2 8.85 1.2 5.11 1.2 C7.94 4.02 8.49 4.57 12.11 5.2 C12.44 4.54 12.77 3.88 13.11 3.2 C14.1 4.19 15.09 5.18 16.11 6.2 C15.45 6.2 14.79 6.2 14.11 6.2 C13.78 7.19 13.45 8.18 13.11 9.2 C11.36 9.22 9.61 9.24 7.86 9.26 C7.38 9.26 7.38 9.26 4.91 9.29 C2.46 9.21 0.45 8.9 -1.89 8.2 C-1.89 6.22 -1.89 4.24 -1.89 2.2 C-3.87 2.2 -5.85 2.2 -7.89 2.2 C-4.63 0.03 -3.75 -0.05 0 0 Z " fill="#000000" transform="translate(218.88671875,230.8046875)"/>
<path d="M0 0 C3 0 3 0 5 1 C8.48 7.95 8.32 14.33 8 22 C7.34 21.34 6.68 20.68 6 20 C5.34 20.99 4.68 21.98 4 23 C3.91 22.61 3.91 22.61 3.48 20.66 C1.99 14.23 0.21 8.76 -3 3 C-2.01 2.67 -1.02 2.34 0 2 C0 1.34 0 0.68 0 0 Z " fill="#000000" transform="translate(333,173)"/>
<path d="M0 0 C1.88 3.33 1.99 5.02 1.29 8.8 C0.67 13.49 0.94 18.27 1 23 C1 23.99 1 24.98 1 26 C-1 27.69 -1 27.69 -3 29 C-5.68 21.81 -6.56 14.26 -3.88 6.93 C-2.68 4.55 -1.43 2.26 0 0 Z " fill="#85cc23" transform="translate(120,177)"/>
<path d="M0 0 C1.32 6.35 1.32 6.35 0.06 8.94 C-3.3 10.67 -6.24 10.24 -10 10 C-10.66 9.67 -11.32 9.34 -12 9 C-12 6.36 -12 3.72 -12 1 C-10.56 0.64 -9.13 0.28 -7.69 -0.06 C-6.89 -0.26 -6.09 -0.46 -5.26 -0.66 C-3 -1 -3 -1 0 0 Z " fill="#000000" transform="translate(291,189)"/>
<path d="M0 0 C0.99 0.33 1.98 0.66 3 1 C3 1.99 3 2.98 3 4 C3.99 4 4.98 4 6 4 C7.02 4.98 8.02 5.98 9 7 C9.35 7.16 9.35 7.16 11.12 8 C13 9 13 9 14 12 C13.67 12.16 13.67 12.16 12 13 C11.38 16.06 11.38 16.06 11 19 C10.67 19 10.34 19 10 19 C10 17.35 10 15.7 10 14 C8.35 13.67 6.7 13.34 5 13 C4.84 12.18 4.84 12.18 4 8 C2.35 8 0.7 8 -1 8 C-1 7.34 -1 6.68 -1 6 C-1.99 5.67 -2.98 5.34 -4 5 C-5.19 2.44 -5.19 2.44 -6 0 C-3.47 -1.27 -2.65 -0.8 0 0 Z " fill="#000000" transform="translate(162,165)"/>
<path d="M0 0 C5.61 0.03 10.35 0.38 15.64 2.27 C14.32 3.26 13 4.25 11.64 5.27 C12.63 5.93 13.62 6.59 14.64 7.27 C14.31 7.43 14.31 7.43 12.64 8.27 C12.64 10.25 12.64 12.23 12.64 14.27 C9.03 12.93 7.48 10.77 5.15 7.8 C2.49 5.09 -0.9 3.72 -4.36 2.27 C-2.36 0.27 -2.36 0.27 0 0 Z " fill="#85cc23" transform="translate(305.35546875,166.734375)"/>
<path d="M0 0 C0.2 3.54 0.38 7.08 0.56 10.62 C0.62 11.62 0.67 12.62 0.73 13.65 C0.98 18.59 1.12 23.14 0 28 C-1.5 26.69 -1.5 26.69 -3 25 C-3 24.01 -3 23.02 -3 22 C-2.34 22 -1.68 22 -1 22 C-1 21.01 -1 20.02 -1 19 C-1.99 19 -2.98 19 -4 19 C-4 13.72 -4 8.44 -4 3 C-5.32 3 -6.64 3 -8 3 C-8 2.34 -8 1.68 -8 1 C-2.25 -1.12 -2.25 -1.12 0 0 Z " fill="#000000" transform="translate(145,179)"/>
<path d="M0 0 C3.5 0.25 3.5 0.25 5.5 2.25 C5.88 5.19 5.88 5.19 5.5 8.25 C3.36 10.63 2.04 11.17 -1.12 11.62 C-1.91 11.5 -2.69 11.38 -3.5 11.25 C-5.8 7.8 -5.84 6.3 -5.5 2.25 C-3.5 0.25 -3.5 0.25 0 0 Z " fill="#ffffff" transform="translate(165.5,177.75)"/>
<path d="M0 0 C3.56 0.31 3.56 0.31 5.56 1.5 C6.56 3.31 6.56 3.31 6.38 5.88 C5.56 8.31 5.56 8.31 3.56 10.31 C0.06 10.62 0.06 10.62 -3.44 10.31 C-5.59 7.09 -5.82 6.05 -5.44 2.31 C-3.44 0.31 -3.44 0.31 0 0 Z " fill="#ffffff" transform="translate(285.4375,177.6875)"/>
<path d="M0 0 C0 3 0 6 0 9 C0.99 8.67 1.98 8.34 3 8 C3.66 12.95 4.32 17.9 5 23 C0.52 20.76 -0.25 19.67 -2.24 15.36 C-3.54 11.32 -3.82 7.17 -3 3 C-1.47 1.21 -1.47 1.21 0 0 Z " fill="#85cc23" transform="translate(130,179)"/>
</svg>
